<svg id="Layer_1" data-name="Layer 1" xmlns="http://www.w3.org/2000/svg" viewBox="0 0 400 63.56"><defs><style>.cls-1{fill:#008b00;}.cls-2{fill:#999;}</style></defs><title>Data Composite</title><path class="cls-1" d="M99.33,27.57a18.76,18.76,0,0,1-1.27,7,15.63,15.63,0,0,1-9.09,9,19.28,19.28,0,0,1-7.15,1.27H68.62V10.28h13.2A19.28,19.28,0,0,1,89,11.56a16.32,16.32,0,0,1,5.53,3.57,16,16,0,0,1,3.56,5.46A18.8,18.8,0,0,1,99.33,27.57Zm-6.58,0a15.84,15.84,0,0,0-.77-5.1,10.85,10.85,0,0,0-2.17-3.83,9.5,9.5,0,0,0-3.43-2.4,11.8,11.8,0,0,0-4.56-.84H75.1V39.74h6.72a12,12,0,0,0,4.56-.83,9.4,9.4,0,0,0,3.43-2.41A10.81,10.81,0,0,0,92,32.68,15.9,15.9,0,0,0,92.75,27.57Z"/><path class="cls-1" d="M123.26,44.86h-2.65a2.85,2.85,0,0,1-1.32-.25,1.63,1.63,0,0,1-.72-1l-.52-1.74a19,19,0,0,1-1.83,1.47,11.13,11.13,0,0,1-1.85,1.06,9.72,9.72,0,0,1-2,.65,12.43,12.43,0,0,1-2.39.21,9.44,9.44,0,0,1-2.87-.42,6.24,6.24,0,0,1-2.26-1.26,5.69,5.69,0,0,1-1.47-2.08,7.48,7.48,0,0,1-.52-2.91,5.69,5.69,0,0,1,.73-2.74A6.79,6.79,0,0,1,106,33.38a15.43,15.43,0,0,1,4.52-1.81,28.88,28.88,0,0,1,7-.72V29.4a5.49,5.49,0,0,0-1-3.67,3.79,3.79,0,0,0-3-1.19,7.45,7.45,0,0,0-2.39.33,8.87,8.87,0,0,0-1.66.75l-1.3.76a2.69,2.69,0,0,1-1.32.33,1.7,1.7,0,0,1-1-.31,2.64,2.64,0,0,1-.69-.76L104,23.75a14.58,14.58,0,0,1,10.21-3.88,9.85,9.85,0,0,1,3.84.71,8.06,8.06,0,0,1,2.86,2,8.51,8.51,0,0,1,1.78,3,11.44,11.44,0,0,1,.61,3.83Zm-11.48-3.68a8,8,0,0,0,1.68-.17,6.27,6.27,0,0,0,1.44-.49,7.55,7.55,0,0,0,1.32-.81,12,12,0,0,0,1.28-1.15v-4.1a24.77,24.77,0,0,0-4.32.32,11.9,11.9,0,0,0-2.78.83,3.68,3.68,0,0,0-1.5,1.18,2.67,2.67,0,0,0-.44,1.47,2.59,2.59,0,0,0,.92,2.24A4,4,0,0,0,111.78,41.18Z"/><path class="cls-1" d="M137.13,45.24a6.46,6.46,0,0,1-4.9-1.8,6.94,6.94,0,0,1-1.72-5V24.75H128a1.21,1.21,0,0,1-.83-.31,1.19,1.19,0,0,1-.34-.93V21.16l3.94-.64,1.25-6.7a1.17,1.17,0,0,1,.44-.74,1.43,1.43,0,0,1,.87-.26h3.06v7.72h6.46v4.21h-6.46v13.3a2.57,2.57,0,0,0,.58,1.79,1.94,1.94,0,0,0,1.53.64,2.76,2.76,0,0,0,.92-.13,4.93,4.93,0,0,0,.64-.27c.19-.1.35-.19.49-.28a.92.92,0,0,1,.43-.13.71.71,0,0,1,.43.13,1.82,1.82,0,0,1,.36.4l1.77,2.87a9,9,0,0,1-3,1.62A11,11,0,0,1,137.13,45.24Z"/><path class="cls-1" d="M166.8,44.86h-2.65a2.85,2.85,0,0,1-1.32-.25,1.66,1.66,0,0,1-.71-1l-.53-1.74a19,19,0,0,1-1.83,1.47,10.74,10.74,0,0,1-1.85,1.06,9.82,9.82,0,0,1-2,.65,12.61,12.61,0,0,1-2.4.21,9.32,9.32,0,0,1-2.86-.42,6.16,6.16,0,0,1-2.26-1.26,5.69,5.69,0,0,1-1.47-2.08,7.3,7.3,0,0,1-.53-2.91,5.69,5.69,0,0,1,.73-2.74,6.74,6.74,0,0,1,2.43-2.45A15.36,15.36,0,0,1,154,31.57a28.94,28.94,0,0,1,7-.72V29.4a5.49,5.49,0,0,0-1-3.67,3.77,3.77,0,0,0-3-1.19,7.47,7.47,0,0,0-2.4.33,9.17,9.17,0,0,0-1.66.75l-1.3.76a2.69,2.69,0,0,1-1.32.33,1.67,1.67,0,0,1-1-.31,2.53,2.53,0,0,1-.7-.76l-1.07-1.89a14.55,14.55,0,0,1,10.21-3.88,9.83,9.83,0,0,1,3.83.71,8.06,8.06,0,0,1,2.86,2,8.37,8.37,0,0,1,1.78,3,11.44,11.44,0,0,1,.61,3.83Zm-11.47-3.68A7.94,7.94,0,0,0,157,41a6.52,6.52,0,0,0,1.45-.49,7.86,7.86,0,0,0,1.31-.81A12,12,0,0,0,161,38.56v-4.1a24.77,24.77,0,0,0-4.32.32,11.9,11.9,0,0,0-2.78.83,3.75,3.75,0,0,0-1.5,1.18,2.67,2.67,0,0,0-.44,1.47,2.59,2.59,0,0,0,.92,2.24A4,4,0,0,0,155.33,41.18Z"/><path class="cls-2" d="M199.06,39.17a.57.57,0,0,1,.41.17l.95,1a15.76,15.76,0,0,1-2.29,2,15.28,15.28,0,0,1-2.72,1.53,16,16,0,0,1-3.22,1,20.2,20.2,0,0,1-3.87.34A16.46,16.46,0,0,1,181.88,44a14.23,14.23,0,0,1-5-3.49,16.18,16.18,0,0,1-3.27-5.46,20.67,20.67,0,0,1-1.17-7.13,19.76,19.76,0,0,1,1.21-7,16,16,0,0,1,3.4-5.46,14.86,14.86,0,0,1,5.23-3.54A17.5,17.5,0,0,1,189,10.64a18.56,18.56,0,0,1,3.38.28,14.52,14.52,0,0,1,2.85.79,13.09,13.09,0,0,1,2.5,1.28,19.37,19.37,0,0,1,2.3,1.77l-.74,1.07a.68.68,0,0,1-.6.29,1,1,0,0,1-.55-.25l-.85-.62c-.34-.25-.76-.52-1.24-.82a10.93,10.93,0,0,0-1.74-.81A14.59,14.59,0,0,0,192,13a15.76,15.76,0,0,0-3-.25,14.7,14.7,0,0,0-5.66,1.06,12.56,12.56,0,0,0-4.45,3A14,14,0,0,0,176,21.63a18.1,18.1,0,0,0-1,6.3,18.78,18.78,0,0,0,1,6.41,14,14,0,0,0,2.85,4.77,12.26,12.26,0,0,0,4.29,3,13.78,13.78,0,0,0,5.37,1,19.65,19.65,0,0,0,3.24-.24,12.71,12.71,0,0,0,2.62-.72A12.34,12.34,0,0,0,196.55,41a15.59,15.59,0,0,0,2-1.63l.23-.15A.49.49,0,0,1,199.06,39.17Z"/><path class="cls-2" d="M216,20.69a11.51,11.51,0,0,1,4.58.87A9.39,9.39,0,0,1,224,24a11,11,0,0,1,2.12,3.86,16.36,16.36,0,0,1,.73,5.06,16.2,16.2,0,0,1-.73,5A11,11,0,0,1,224,41.85a9.14,9.14,0,0,1-3.4,2.46,12.63,12.63,0,0,1-9.16,0A9.21,9.21,0,0,1,208,41.85,11,11,0,0,1,205.91,38a16.2,16.2,0,0,1-.73-5,16.36,16.36,0,0,1,.73-5.06A11,11,0,0,1,208,24a9.46,9.46,0,0,1,3.42-2.47A11.47,11.47,0,0,1,216,20.69Zm0,22.69a8.94,8.94,0,0,0,3.72-.73,7.15,7.15,0,0,0,2.65-2.09A9.25,9.25,0,0,0,224,37.27a16.38,16.38,0,0,0,.53-4.32,16.39,16.39,0,0,0-.53-4.3,9.27,9.27,0,0,0-1.59-3.31,7,7,0,0,0-2.65-2.12,9.72,9.72,0,0,0-7.44,0,7,7,0,0,0-2.65,2.12,9.47,9.47,0,0,0-1.61,3.31,16,16,0,0,0-.54,4.3,16,16,0,0,0,.54,4.32,9.45,9.45,0,0,0,1.61,3.29,7.07,7.07,0,0,0,2.65,2.09A8.94,8.94,0,0,0,216,43.38Z"/><path class="cls-2" d="M232.85,44.86V21.07h1.24a.66.66,0,0,1,.72.6l.21,3.44a15.54,15.54,0,0,1,1.49-1.79,9.19,9.19,0,0,1,1.68-1.4A7.78,7.78,0,0,1,240.1,21a6.89,6.89,0,0,1,2.14-.32,5.69,5.69,0,0,1,4.16,1.51,8,8,0,0,1,2.11,4.22,8.48,8.48,0,0,1,1.2-2.55,7.57,7.57,0,0,1,1.78-1.79,7.38,7.38,0,0,1,2.19-1,8.58,8.58,0,0,1,2.42-.34,8.23,8.23,0,0,1,3.18.58,6.38,6.38,0,0,1,2.4,1.73,7.9,7.9,0,0,1,1.51,2.83,12.73,12.73,0,0,1,.53,3.82V44.86h-2.28V29.65a8.23,8.23,0,0,0-1.5-5.32,5.26,5.26,0,0,0-4.3-1.83,6.19,6.19,0,0,0-2.38.46,5.66,5.66,0,0,0-2,1.35,6.36,6.36,0,0,0-1.39,2.23,8.74,8.74,0,0,0-.51,3.11V44.86h-2.28V29.65a8.75,8.75,0,0,0-1.38-5.31,4.77,4.77,0,0,0-4-1.84,6.14,6.14,0,0,0-3.59,1.16,11.1,11.1,0,0,0-2.94,3.22v18Z"/><path class="cls-2" d="M270.89,53.28V21.07h1.24a.88.88,0,0,1,.51.13.61.61,0,0,1,.21.47l.22,3.68a12.44,12.44,0,0,1,3.69-3.42,9,9,0,0,1,4.75-1.27,8.27,8.27,0,0,1,6.84,3q2.43,3,2.43,9.11a16.5,16.5,0,0,1-.68,4.86,11.74,11.74,0,0,1-2,3.93,9.47,9.47,0,0,1-3.24,2.61,9.86,9.86,0,0,1-4.44,1,9.31,9.31,0,0,1-4.21-.88,8.58,8.58,0,0,1-3.06-2.63V53.28Zm10-30.78a7.79,7.79,0,0,0-4.29,1.23,12,12,0,0,0-3.41,3.44V39.65a8.16,8.16,0,0,0,3,2.89,9.07,9.07,0,0,0,7.47.07,7.28,7.28,0,0,0,2.64-2.16,9.74,9.74,0,0,0,1.6-3.35,16,16,0,0,0,.54-4.29q0-5.31-1.95-7.81A6.72,6.72,0,0,0,280.86,22.5Z"/><path class="cls-2" d="M305.54,20.69a11.51,11.51,0,0,1,4.58.87,9.39,9.39,0,0,1,3.4,2.47,11,11,0,0,1,2.12,3.86,16.36,16.36,0,0,1,.73,5.06,16.2,16.2,0,0,1-.73,5,11,11,0,0,1-2.12,3.85,9.14,9.14,0,0,1-3.4,2.46,12.63,12.63,0,0,1-9.16,0,9.21,9.21,0,0,1-3.42-2.46A11,11,0,0,1,295.41,38a16.2,16.2,0,0,1-.73-5,16.36,16.36,0,0,1,.73-5.06A11,11,0,0,1,297.54,24,9.46,9.46,0,0,1,301,21.56,11.47,11.47,0,0,1,305.54,20.69Zm0,22.69a9,9,0,0,0,3.72-.73,7.15,7.15,0,0,0,2.65-2.09,9.25,9.25,0,0,0,1.59-3.29A16.38,16.38,0,0,0,314,33a16.39,16.39,0,0,0-.53-4.3,9.27,9.27,0,0,0-1.59-3.31,7,7,0,0,0-2.65-2.12,9.72,9.72,0,0,0-7.44,0,7.06,7.06,0,0,0-2.66,2.12,9.63,9.63,0,0,0-1.6,3.31A16,16,0,0,0,297,33a16,16,0,0,0,.54,4.32,9.62,9.62,0,0,0,1.6,3.29,7.18,7.18,0,0,0,2.66,2.09A8.94,8.94,0,0,0,305.54,43.38Z"/><path class="cls-2" d="M335.45,24a.55.55,0,0,1-.53.34,1.31,1.31,0,0,1-.68-.3,10.75,10.75,0,0,0-1.1-.67,8.64,8.64,0,0,0-1.67-.67,8.48,8.48,0,0,0-2.43-.3,7,7,0,0,0-2.35.37,6,6,0,0,0-1.82,1,4.48,4.48,0,0,0-1.17,1.44,3.77,3.77,0,0,0-.42,1.73,3,3,0,0,0,.57,1.86,4.86,4.86,0,0,0,1.51,1.27,11.35,11.35,0,0,0,2.11.9l2.43.77c.83.25,1.64.53,2.43.85a9,9,0,0,1,2.12,1.16,5.4,5.4,0,0,1,1.5,1.69,4.89,4.89,0,0,1,.58,2.44,7.35,7.35,0,0,1-.57,2.9,6.45,6.45,0,0,1-1.62,2.31,7.64,7.64,0,0,1-2.62,1.56,10.27,10.27,0,0,1-3.54.57,10.59,10.59,0,0,1-4.33-.8,12.13,12.13,0,0,1-3.25-2.09l.55-.81a.94.94,0,0,1,.26-.29.77.77,0,0,1,.41-.1,1.32,1.32,0,0,1,.77.39,9,9,0,0,0,1.18.82,9.49,9.49,0,0,0,1.82.83,8.29,8.29,0,0,0,2.69.38,7.68,7.68,0,0,0,2.65-.42A5.46,5.46,0,0,0,332.84,42,4.65,4.65,0,0,0,334,40.33a5.28,5.28,0,0,0,.4-2,3.25,3.25,0,0,0-.58-2,4.88,4.88,0,0,0-1.5-1.34A10,10,0,0,0,330.2,34c-.79-.26-1.6-.51-2.44-.77s-1.65-.53-2.44-.83a9.07,9.07,0,0,1-2.11-1.15,5.54,5.54,0,0,1-1.51-1.69,4.88,4.88,0,0,1-.57-2.47,5.61,5.61,0,0,1,.55-2.44,6.22,6.22,0,0,1,1.56-2.06,7.76,7.76,0,0,1,2.48-1.41,9.59,9.59,0,0,1,3.27-.52,11.06,11.06,0,0,1,3.87.63A9.5,9.5,0,0,1,336,23.24Z"/><path class="cls-2" d="M346.86,12.87a1.84,1.84,0,0,1-.18.8,2.51,2.51,0,0,1-.47.65,2,2,0,0,1-.67.46,2,2,0,0,1-.81.17,2.08,2.08,0,0,1-.82-.17,2.17,2.17,0,0,1-.67-.46,2.23,2.23,0,0,1-.45-.65,2,2,0,0,1-.17-.8,2.19,2.19,0,0,1,.62-1.51,2.32,2.32,0,0,1,.67-.45,1.91,1.91,0,0,1,.82-.17,1.87,1.87,0,0,1,.81.17,2.08,2.08,0,0,1,.67.45,2.36,2.36,0,0,1,.47.68A2,2,0,0,1,346.86,12.87Zm-1,8.2V44.86h-2.27V21.07Z"/><path class="cls-2" d="M360.75,45.24A5.07,5.07,0,0,1,357,43.9a5.64,5.64,0,0,1-1.34-4.13V23.51h-3.42a.64.64,0,0,1-.43-.15.49.49,0,0,1-.16-.4v-.89l4.06-.28.57-8.52a.64.64,0,0,1,.18-.38.53.53,0,0,1,.41-.17h1.07v9.09h7.48v1.7h-7.48V39.65a5,5,0,0,0,.25,1.68,3.09,3.09,0,0,0,.69,1.16,2.63,2.63,0,0,0,1,.67,3.64,3.64,0,0,0,1.29.22,4.05,4.05,0,0,0,1.48-.25,6,6,0,0,0,1.08-.55,8.39,8.39,0,0,0,.74-.55.78.78,0,0,1,.46-.25.55.55,0,0,1,.38.23l.62,1a6.51,6.51,0,0,1-2.31,1.61A7.12,7.12,0,0,1,360.75,45.24Z"/><path class="cls-2" d="M380.28,20.69a9.85,9.85,0,0,1,3.72.69,8.3,8.3,0,0,1,3,2,9.37,9.37,0,0,1,2,3.26,13,13,0,0,1,.7,4.45,1.24,1.24,0,0,1-.15.72A.6.6,0,0,1,389,32H371.82v.45a16.24,16.24,0,0,0,.62,4.71,9.42,9.42,0,0,0,1.77,3.41A7.22,7.22,0,0,0,377,42.66a9.26,9.26,0,0,0,3.64.69,11.05,11.05,0,0,0,3.11-.39,11.8,11.8,0,0,0,3.63-1.77,1.63,1.63,0,0,1,.77-.39.56.56,0,0,1,.47.23l.63.77a6.74,6.74,0,0,1-1.52,1.34,10.67,10.67,0,0,1-2.11,1.06,15.25,15.25,0,0,1-2.48.71,14.21,14.21,0,0,1-2.67.26,11.24,11.24,0,0,1-4.45-.85,9.32,9.32,0,0,1-3.44-2.47,11.48,11.48,0,0,1-2.23-4,17.16,17.16,0,0,1-.78-5.4,14.6,14.6,0,0,1,.73-4.72,10.73,10.73,0,0,1,2.1-3.73,9.68,9.68,0,0,1,3.37-2.45A11.06,11.06,0,0,1,380.28,20.69Zm0,1.69A8.79,8.79,0,0,0,377,23a7.16,7.16,0,0,0-2.52,1.65,8.24,8.24,0,0,0-1.71,2.58,11.9,11.9,0,0,0-.88,3.37h15.67a10.47,10.47,0,0,0-.53-3.43,7.29,7.29,0,0,0-1.48-2.57,6.54,6.54,0,0,0-2.29-1.62A7.65,7.65,0,0,0,380.32,22.38Z"/><path class="cls-2" d="M36.2,31.74c-2.34,5.4-6.54,5.14-10.74,4.73a21.88,21.88,0,0,0-4.66-.1l4.86-11.86a7.3,7.3,0,0,0,.94.07A7,7,0,1,0,22,22.85L10.37,51.45,14.11,53,18.7,41.59c1.24-1.68,3.08-1.59,6.39-1.28,4.35.42,8.39.3,11.85-7.67ZM26.6,14.06a3.51,3.51,0,1,1-3.51,3.5A3.5,3.5,0,0,1,26.6,14.06Z"/><path class="cls-1" d="M43.37,23.67c-4,1-7,3.88-7.17,8.07l.16-.18a14.39,14.39,0,0,1,4.06-3.12c.38-.2.78-.37,1.17-.54s.8-.31,1.22-.43a13.58,13.58,0,0,1,2.5-.53,14.39,14.39,0,0,1,5,.26,35.78,35.78,0,0,0-4.83.8c-.2,0-.39.1-.58.15l-.58.17c-.38.13-.76.24-1.13.38a19.07,19.07,0,0,0-2.17,1,20,20,0,0,0-3.94,2.67l-.29.25a9.36,9.36,0,0,0,9.84,2.51c3.64-1.21,5.79-3.92,8.49-8.86C50.36,23.77,47.11,22.72,43.37,23.67Z"/></svg>