<svg id="Layer_1" data-name="Layer 1" xmlns="http://www.w3.org/2000/svg" viewBox="0 0 16 16"><defs><style>.cls-1{fill:#999;}.cls-2{fill:#008b00;}</style></defs><title>Data Composite</title><path class="cls-1" d="M9.16,7.89C8.36,9.72,6.94,9.63,5.51,9.5a7.54,7.54,0,0,0-1.58,0l1.65-4a1.67,1.67,0,0,0,.32,0,2.38,2.38,0,1,0-1.57-.58L.38,14.59l1.27.51,1.56-3.87c.42-.57,1-.54,2.17-.43,1.48.14,2.86.1,4-2.61Zm-3.26-6a1.19,1.19,0,0,1,0,2.38,1.19,1.19,0,0,1,0-2.38Z"/><path class="cls-2" d="M11.6,5.15A3,3,0,0,0,9.16,7.89l.05-.06a4.76,4.76,0,0,1,1.38-1.06l.4-.19.41-.14a4.3,4.3,0,0,1,.85-.18A4.67,4.67,0,0,1,14,6.35a12.47,12.47,0,0,0-1.64.27l-.2,0a1.39,1.39,0,0,0-.19.06l-.39.13a6,6,0,0,0-.73.32,6.74,6.74,0,0,0-1.34.91l-.1.08A3.17,3.17,0,0,0,12.71,9c1.24-.41,2-1.34,2.89-3C14,5.18,12.86,4.82,11.6,5.15Z"/></svg>