<svg id="Layer_1" data-name="Layer 1" xmlns="http://www.w3.org/2000/svg" viewBox="0 0 3000 457.92"><defs><style>.cls-1{fill:#008b00;}.cls-2{fill:#999;}</style></defs><title>Data Composite</title><path class="cls-1" d="M730.51,197q0,28.86-9.62,53a118.95,118.95,0,0,1-68.95,68.59q-24.5,9.63-54.26,9.62H497.52V65.83H597.68q29.76,0,54.26,9.71a122.81,122.81,0,0,1,41.92,27,120.85,120.85,0,0,1,27,41.47Q730.5,168.18,730.51,197Zm-49.9,0q0-21.59-5.81-38.74a82,82,0,0,0-16.51-29,71.36,71.36,0,0,0-26-18.24q-15.33-6.35-34.57-6.35h-51V289.39h51q19.23,0,34.57-6.35a71.36,71.36,0,0,0,26-18.24,82,82,0,0,0,16.51-29Q680.61,218.61,680.61,197Z"/><path class="cls-1" d="M912.15,328.22H892c-4.24,0-7.56-.64-10-1.91s-4.24-3.84-5.45-7.71l-4-13.25a151.5,151.5,0,0,1-13.88,11.16,84.27,84.27,0,0,1-14.06,8.08,71.63,71.63,0,0,1-15.43,4.9,92.65,92.65,0,0,1-18.14,1.63,71.38,71.38,0,0,1-21.78-3.18,46.87,46.87,0,0,1-17.15-9.56A43.26,43.26,0,0,1,761,302.54a56.17,56.17,0,0,1-4-22,43.59,43.59,0,0,1,5.54-20.85q5.52-10.28,18.42-18.57t34.29-13.74q21.4-5.46,53.17-5.47v-11q0-18.82-7.89-27.88t-23-9.05q-10.89,0-18.15,2.54a70.43,70.43,0,0,0-12.61,5.71q-5.35,3.18-9.89,5.72a20,20,0,0,1-10,2.54,12.93,12.93,0,0,1-7.8-2.36,18.49,18.49,0,0,1-5.26-5.81L765.71,168q32.12-29.4,77.49-29.4,16.32,0,29.12,5.36A61.71,61.71,0,0,1,894,158.83a63.57,63.57,0,0,1,13.52,22.77,87.37,87.37,0,0,1,4.63,29Zm-87.1-28a60,60,0,0,0,12.7-1.25,48.39,48.39,0,0,0,11-3.75,58.19,58.19,0,0,0,10-6.16,91.35,91.35,0,0,0,9.71-8.66V249.28q-19.6,0-32.75,2.47t-21.15,6.31q-8,3.84-11.34,8.95a19.9,19.9,0,0,0-3.35,11.15q0,11.88,7,17T825.05,300.27Z"/><path class="cls-1" d="M1017.39,331.12q-24.14,0-37.19-13.7t-13.07-37.83v-104H948.26a9,9,0,0,1-6.26-2.36c-1.76-1.57-2.63-3.93-2.63-7.08V148.39l29.94-4.9,9.44-50.81a9,9,0,0,1,3.35-5.62,10.64,10.64,0,0,1,6.62-2H1012v58.61h49v31.94h-49V276.5q0,8.72,4.36,13.61a14.75,14.75,0,0,0,11.61,4.9,21,21,0,0,0,7-1,39.45,39.45,0,0,0,4.9-2.08c1.39-.73,2.63-1.42,3.72-2.09a6.22,6.22,0,0,1,3.26-1,5.18,5.18,0,0,1,3.27,1,15.54,15.54,0,0,1,2.72,3l13.43,21.78a67.93,67.93,0,0,1-22.5,12.34A83.84,83.84,0,0,1,1017.39,331.12Z"/><path class="cls-1" d="M1242.58,328.22h-20.14c-4.24,0-7.56-.64-10-1.91s-4.23-3.84-5.44-7.71l-4-13.25a151.58,151.58,0,0,1-13.89,11.16,83.87,83.87,0,0,1-14.06,8.08,71.72,71.72,0,0,1-15.42,4.9,92.75,92.75,0,0,1-18.15,1.63,71.36,71.36,0,0,1-21.77-3.18,46.79,46.79,0,0,1-17.15-9.56,43.4,43.4,0,0,1-11.16-15.84,56.18,56.18,0,0,1-4-22,43.58,43.58,0,0,1,5.53-20.85q5.54-10.28,18.42-18.57t34.29-13.74q21.42-5.46,53.17-5.47v-11q0-18.82-7.89-27.88T1168,174c-7.25,0-13.31.85-18.14,2.54a70.11,70.11,0,0,0-12.61,5.71q-5.36,3.18-9.89,5.72a20,20,0,0,1-10,2.54,12.88,12.88,0,0,1-7.79-2.36,18.52,18.52,0,0,1-5.27-5.81L1096.15,168q32.11-29.4,77.48-29.4,16.33,0,29.12,5.36a61.84,61.84,0,0,1,21.69,14.88A63.69,63.69,0,0,1,1238,181.6a87.37,87.37,0,0,1,4.63,29Zm-87.1-28a60.07,60.07,0,0,0,12.71-1.25,48.39,48.39,0,0,0,11-3.75,58.11,58.11,0,0,0,10-6.16,90.38,90.38,0,0,0,9.71-8.66V249.28q-19.61,0-32.75,2.47T1145,258.06q-8,3.84-11.34,8.95a19.91,19.91,0,0,0-3.36,11.15q0,11.88,7,17T1155.48,300.27Z"/><path class="cls-2" d="M1487.37,285a4.24,4.24,0,0,1,3.09,1.27l7.25,7.8a119.68,119.68,0,0,1-17.42,15.34,108.38,108.38,0,0,1-20.59,11.61,120.43,120.43,0,0,1-24.5,7.44,152,152,0,0,1-29.3,2.63q-26.69,0-48.91-9.34a108.69,108.69,0,0,1-38.11-26.5q-15.87-17.14-24.76-41.46t-8.9-54.07q0-29.22,9.17-53.35a121.52,121.52,0,0,1,25.77-41.47,114.85,114.85,0,0,1,39.74-26.85Q1383,68.56,1411,68.55a145.12,145.12,0,0,1,25.58,2.09,117.59,117.59,0,0,1,21.69,6,102,102,0,0,1,19,9.7,147.18,147.18,0,0,1,17.42,13.43l-5.63,8.17a5.05,5.05,0,0,1-4.53,2.17,7.68,7.68,0,0,1-4.18-1.9c-1.69-1.27-3.83-2.84-6.44-4.72s-5.74-3.93-9.44-6.17a76.32,76.32,0,0,0-13.15-6.17,111,111,0,0,0-17.6-4.71A120.87,120.87,0,0,0,1411,84.52a111.94,111.94,0,0,0-43,8.07,96.56,96.56,0,0,0-33.75,23,105.51,105.51,0,0,0-22,36.29q-7.89,21.33-7.89,47.82,0,27.21,7.8,48.63t21.6,36.2a93.54,93.54,0,0,0,32.57,22.68,104.1,104.1,0,0,0,40.73,7.89,149.38,149.38,0,0,0,24.59-1.81,96.39,96.39,0,0,0,19.87-5.44,89.46,89.46,0,0,0,16.88-8.9,126.65,126.65,0,0,0,15.42-12.34,12.57,12.57,0,0,1,1.73-1.17A3.77,3.77,0,0,1,1487.37,285Z"/><path class="cls-2" d="M1616.21,144.76q19.41,0,34.74,6.63a70.59,70.59,0,0,1,25.86,18.78,83.1,83.1,0,0,1,16.06,29.3q5.54,17.16,5.54,38.38t-5.54,38.29a83.2,83.2,0,0,1-16.06,29.21,69.84,69.84,0,0,1-25.86,18.7q-15.33,6.52-34.74,6.53t-34.75-6.53a70.65,70.65,0,0,1-26-18.7,82.43,82.43,0,0,1-16.15-29.21q-5.55-17.06-5.54-38.29t5.54-38.38a82.32,82.32,0,0,1,16.15-29.3,71.42,71.42,0,0,1,26-18.78Q1596.79,144.76,1616.21,144.76Zm0,172.21q16.14,0,28.21-5.54a53.31,53.31,0,0,0,20.14-15.88,69.83,69.83,0,0,0,12.07-24.95,124.24,124.24,0,0,0,4-32.75,124.62,124.62,0,0,0-4-32.66,70.71,70.71,0,0,0-12.07-25.13A53.77,53.77,0,0,0,1644.42,164q-12.06-5.62-28.21-5.63T1588,164a53.77,53.77,0,0,0-20.14,16.06,72,72,0,0,0-12.17,25.13,122,122,0,0,0-4.08,32.66,121.65,121.65,0,0,0,4.08,32.75,71.15,71.15,0,0,0,12.17,24.95A53.31,53.31,0,0,0,1588,311.43Q1600.05,317,1616.21,317Z"/><path class="cls-2" d="M1743.76,328.22V147.67h9.44c3.14,0,5,1.51,5.44,4.53l1.64,26.13a114,114,0,0,1,11.25-13.61,74.68,74.68,0,0,1,12.79-10.61,59.52,59.52,0,0,1,14.52-6.9,53.39,53.39,0,0,1,16.24-2.45q19.77,0,31.57,11.53t16,32a62.5,62.5,0,0,1,9.15-19.41,57,57,0,0,1,13.5-13.52,55.91,55.91,0,0,1,16.57-8,64.8,64.8,0,0,1,18.39-2.64,62.32,62.32,0,0,1,24.1,4.45,48.23,48.23,0,0,1,18.21,13.15,59.73,59.73,0,0,1,11.5,21.42,96.84,96.84,0,0,1,4,29V328.22h-17.24V212.81q0-26.49-11.43-40.37t-32.66-13.89a48.11,48.11,0,0,0-18.06,3.45,43.76,43.76,0,0,0-15.24,10.25,49.29,49.29,0,0,0-10.53,17,65.64,65.64,0,0,0-3.9,23.59V328.22h-17.24V212.81q0-26.31-10.52-40.28t-30.67-14a46.36,46.36,0,0,0-27.22,8.81q-12.51,8.8-22.32,24.4V328.22Z"/><path class="cls-2" d="M2032.46,392.09V147.67h9.43a6.66,6.66,0,0,1,3.82,1,4.43,4.43,0,0,1,1.63,3.54l1.63,28a95.67,95.67,0,0,1,28-26,68.77,68.77,0,0,1,36-9.62q33.39,0,51.89,23t18.51,69.13a127.23,127.23,0,0,1-5.17,36.93,88.59,88.59,0,0,1-15.15,29.76,71.49,71.49,0,0,1-24.59,19.87q-14.61,7.26-33.66,7.26-18.51,0-31.93-6.72a64.72,64.72,0,0,1-23.23-20v88.19Zm75.67-233.54a59.15,59.15,0,0,0-32.57,9.35q-14.61,9.34-25.86,26v94.72q10.34,15.61,23,22t28.76,6.35q16,0,28-5.81a55,55,0,0,0,20-16.42,74,74,0,0,0,12.16-25.4,122.31,122.31,0,0,0,4.08-32.58q0-40.27-14.79-59.24T2108.13,158.55Z"/><path class="cls-2" d="M2295.39,144.76q19.41,0,34.75,6.63A70.76,70.76,0,0,1,2356,170.17a83.25,83.25,0,0,1,16.06,29.3q5.54,17.16,5.53,38.38t-5.53,38.29A83.36,83.36,0,0,1,2356,305.35a70,70,0,0,1-25.86,18.7q-15.34,6.52-34.75,6.53t-34.75-6.53a70.82,70.82,0,0,1-25.95-18.7,82.58,82.58,0,0,1-16.15-29.21q-5.53-17.06-5.53-38.29t5.53-38.38a82.48,82.48,0,0,1,16.15-29.3,71.59,71.59,0,0,1,25.95-18.78Q2276,144.76,2295.39,144.76Zm0,172.21q16.14,0,28.22-5.54a53.47,53.47,0,0,0,20.14-15.88,70,70,0,0,0,12.06-24.95,124.23,124.23,0,0,0,4-32.75,124.6,124.6,0,0,0-4-32.66,70.87,70.87,0,0,0-12.06-25.13A53.92,53.92,0,0,0,2323.61,164q-12.08-5.62-28.22-5.63T2267.17,164A53.85,53.85,0,0,0,2247,180.06a72.21,72.21,0,0,0-12.16,25.13,122,122,0,0,0-4.08,32.66,121.65,121.65,0,0,0,4.08,32.75A71.31,71.31,0,0,0,2247,295.55a53.39,53.39,0,0,0,20.14,15.88Q2279.25,317,2295.39,317Z"/><path class="cls-2" d="M2522.39,170.17a4.21,4.21,0,0,1-4,2.54q-2,0-5.17-2.27a84.94,84.94,0,0,0-8.34-5.08,67.92,67.92,0,0,0-12.71-5.08,64.62,64.62,0,0,0-18.42-2.27,53.9,53.9,0,0,0-17.87,2.81,44.33,44.33,0,0,0-13.79,7.51,34,34,0,0,0-8.89,10.94A28.58,28.58,0,0,0,2430,192.4q0,8.5,4.36,14.11a37.46,37.46,0,0,0,11.43,9.59,87,87,0,0,0,16.06,6.88q9,2.9,18.42,5.8t18.41,6.44a69.12,69.12,0,0,1,16.06,8.8,41.74,41.74,0,0,1,11.44,12.88q4.35,7.64,4.35,18.51a56.19,56.19,0,0,1-4.26,22A50,50,0,0,1,2514,315a59.27,59.27,0,0,1-19.87,11.8,77.33,77.33,0,0,1-26.86,4.35q-19,0-32.84-6.08a91.91,91.91,0,0,1-24.68-15.88l4.18-6.16a6.86,6.86,0,0,1,2-2.18,5.56,5.56,0,0,1,3.08-.73c1.58,0,3.51,1,5.81,2.91a72.82,72.82,0,0,0,9,6.26,74,74,0,0,0,13.79,6.26q8.25,2.89,20.41,2.9a58.6,58.6,0,0,0,20.14-3.18,41.87,41.87,0,0,0,14.52-8.61,36,36,0,0,0,8.8-12.8,40.83,40.83,0,0,0,3-15.51q0-9.07-4.35-15.06a37.51,37.51,0,0,0-11.43-10.17,79.73,79.73,0,0,0-16.06-7.07q-9-2.91-18.51-5.81t-18.51-6.35a66.94,66.94,0,0,1-16.06-8.71,41.94,41.94,0,0,1-11.43-12.79q-4.37-7.53-4.36-18.79a42.94,42.94,0,0,1,4.18-18.5,47.05,47.05,0,0,1,11.88-15.61,58.5,58.5,0,0,1,18.78-10.7,72.72,72.72,0,0,1,24.86-4q16.52,0,29.31,4.79a71.53,71.53,0,0,1,23.5,14.63Z"/><path class="cls-2" d="M2608.94,85.43a13.7,13.7,0,0,1-1.36,6.07,18.23,18.23,0,0,1-3.54,5,16.09,16.09,0,0,1-5.08,3.45,15.62,15.62,0,0,1-12.34,0,16.21,16.21,0,0,1-5.08-3.45,16.76,16.76,0,0,1-3.45-5,14.51,14.51,0,0,1-1.27-6.07,15.78,15.78,0,0,1,1.27-6.26,16,16,0,0,1,8.53-8.62,15.62,15.62,0,0,1,12.34,0A16.23,16.23,0,0,1,2604,74a17.49,17.49,0,0,1,3.54,5.18A14.89,14.89,0,0,1,2608.94,85.43Zm-7.62,62.24V328.22h-17.24V147.67Z"/><path class="cls-2" d="M2714.36,331.12q-18.33,0-28.49-10.16t-10.16-31.39V166.17h-25.95a4.84,4.84,0,0,1-3.26-1.08,3.85,3.85,0,0,1-1.27-3.09v-6.71l30.84-2.18,4.32-64.6a5,5,0,0,1,1.34-2.9,4,4,0,0,1,3.14-1.27H2693v68.95h56.8v12.88H2693V288.66a38.47,38.47,0,0,0,1.9,12.79,23.91,23.91,0,0,0,5.27,8.8,20.61,20.61,0,0,0,7.89,5.09,28.91,28.91,0,0,0,9.8,1.63,30,30,0,0,0,11.25-1.91,46.71,46.71,0,0,0,8.17-4.17,51.29,51.29,0,0,0,5.62-4.18c1.45-1.26,2.6-1.9,3.45-1.9a3.94,3.94,0,0,1,2.9,1.82l4.72,7.62a50.4,50.4,0,0,1-17.51,12.25A54.72,54.72,0,0,1,2714.36,331.12Z"/><path class="cls-2" d="M2862.62,144.76a74.35,74.35,0,0,1,28.21,5.27,63.46,63.46,0,0,1,22.5,15.33,70.71,70.71,0,0,1,14.88,24.77q5.36,14.7,5.35,33.75c0,2.66-.39,4.48-1.17,5.44a4.52,4.52,0,0,1-3.72,1.45H2798.38v3.45q0,20.33,4.72,35.75t13.42,25.86a55.33,55.33,0,0,0,21.05,15.69,69.62,69.62,0,0,0,27.58,5.27,82.34,82.34,0,0,0,23.59-3,87.78,87.78,0,0,0,16.79-6.71,91.94,91.94,0,0,0,10.8-6.72c2.65-2,4.59-3,5.8-3a4.18,4.18,0,0,1,3.63,1.82l4.72,5.8A49.39,49.39,0,0,1,2919,315.15a82.36,82.36,0,0,1-16,8.08,116.08,116.08,0,0,1-18.88,5.35,103.79,103.79,0,0,1-20.23,2,85.92,85.92,0,0,1-33.75-6.44A71.89,71.89,0,0,1,2804,305.35q-10.92-12.33-16.87-30.21t-6-40.92a111.66,111.66,0,0,1,5.53-35.84,82,82,0,0,1,16-28.3,72.59,72.59,0,0,1,25.59-18.6Q2843.37,144.76,2862.62,144.76Zm.26,12.89a67.78,67.78,0,0,0-25,4.35,54.89,54.89,0,0,0-19.12,12.52,64.05,64.05,0,0,0-13.05,19.6,89.45,89.45,0,0,0-6.61,25.59H2918a79.29,79.29,0,0,0-4-26,55.76,55.76,0,0,0-11.23-19.51,48.59,48.59,0,0,0-17.4-12.25A57.45,57.45,0,0,0,2862.88,157.65Z"/><path class="cls-2" d="M262.49,228.65c-17.76,41-49.66,39-81.52,35.93-11.21-1.07-23.46-2.24-35.34-.81l36.89-90a53.25,53.25,0,1,0-27.85-12.62L66.44,378.25,94.81,389.7l34.84-86.33c9.44-12.71,23.38-12.07,48.53-9.66,33,3.16,63.69,2.28,89.91-58.24ZM189.61,94.48a26.6,26.6,0,1,1-26.6,26.6A26.63,26.63,0,0,1,189.61,94.48Z"/><path class="cls-1" d="M316.92,167.39c-30.23,7.71-53,29.5-54.43,61.27.4-.46.78-.93,1.19-1.38a108.56,108.56,0,0,1,30.82-23.66c2.89-1.53,5.9-2.8,8.88-4.12,3.07-1.12,6.09-2.36,9.23-3.24a108.09,108.09,0,0,1,19-4,109.39,109.39,0,0,1,38.18,2,274.65,274.65,0,0,0-36.7,6.06c-1.49.31-2.95.77-4.41,1.19s-2.93.77-4.37,1.24c-2.86,1-5.77,1.8-8.57,2.93a134.49,134.49,0,0,0-16.49,7.25,150.78,150.78,0,0,0-29.88,20.23c-.74.64-1.46,1.29-2.19,1.94,20.27,20.16,46.92,28.19,74.63,19s43.94-29.74,64.48-67.18C369.93,168.19,345.24,160.17,316.92,167.39Z"/></svg>